<mxfile host="app.diagrams.net" agent="Mozilla/5.0 (X11; Linux x86_64) AppleWebKit/537.36 (KHTML, like Gecko) Chrome/132.0.0.0 Safari/537.36" version="26.0.7" pages="2">
  <diagram name="STONE" id="M8TIZFiBVRt_eYgcdwZX">
    <mxGraphModel dx="2261" dy="754" grid="1" gridSize="10" guides="1" tooltips="1" connect="1" arrows="1" fold="1" page="1" pageScale="1" pageWidth="827" pageHeight="1169" math="0" shadow="0">
      <root>
        <mxCell id="0" />
        <mxCell id="1" parent="0" />
        <mxCell id="V4fzJkrM36grcwL6YR9b-5" value="Классы:&lt;div&gt;Справочник&lt;/div&gt;&lt;div&gt;Контакт&lt;/div&gt;&lt;div&gt;Чтение файла&lt;/div&gt;&lt;div&gt;Запись файла&lt;/div&gt;" style="text;html=1;align=left;verticalAlign=middle;whiteSpace=wrap;rounded=0;" parent="1" vertex="1">
          <mxGeometry x="640" y="40" width="190" height="120" as="geometry" />
        </mxCell>
        <mxCell id="V4fzJkrM36grcwL6YR9b-6" value="Исключения:&lt;div&gt;для обработки всевозможных ошибок&lt;/div&gt;" style="text;html=1;align=left;verticalAlign=middle;whiteSpace=wrap;rounded=0;" parent="1" vertex="1">
          <mxGeometry x="640" y="160" width="190" height="120" as="geometry" />
        </mxCell>
        <mxCell id="oml5ZcgVibJiAviR7uDO-8" value="" style="group" vertex="1" connectable="0" parent="1">
          <mxGeometry x="240" y="80" width="200" height="120" as="geometry" />
        </mxCell>
        <mxCell id="oml5ZcgVibJiAviR7uDO-4" value="" style="rounded=0;whiteSpace=wrap;html=1;" vertex="1" parent="oml5ZcgVibJiAviR7uDO-8">
          <mxGeometry width="200" height="120" as="geometry" />
        </mxCell>
        <mxCell id="oml5ZcgVibJiAviR7uDO-5" value="main.py" style="text;html=1;align=center;verticalAlign=middle;whiteSpace=wrap;rounded=0;" vertex="1" parent="oml5ZcgVibJiAviR7uDO-8">
          <mxGeometry width="60" height="30" as="geometry" />
        </mxCell>
        <mxCell id="oml5ZcgVibJiAviR7uDO-7" value="controller.start_app()" style="text;html=1;align=center;verticalAlign=middle;whiteSpace=wrap;rounded=0;" vertex="1" parent="oml5ZcgVibJiAviR7uDO-8">
          <mxGeometry y="40" width="140" height="30" as="geometry" />
        </mxCell>
        <mxCell id="oml5ZcgVibJiAviR7uDO-9" value="" style="group" vertex="1" connectable="0" parent="1">
          <mxGeometry x="-40" y="680" width="200" height="285" as="geometry" />
        </mxCell>
        <mxCell id="UG17n_jlXaB1rcsVZEa7-2" value="" style="group" vertex="1" connectable="0" parent="oml5ZcgVibJiAviR7uDO-9">
          <mxGeometry width="200" height="200" as="geometry" />
        </mxCell>
        <mxCell id="oml5ZcgVibJiAviR7uDO-10" value="" style="rounded=0;whiteSpace=wrap;html=1;" vertex="1" parent="UG17n_jlXaB1rcsVZEa7-2">
          <mxGeometry width="200" height="200" as="geometry" />
        </mxCell>
        <mxCell id="oml5ZcgVibJiAviR7uDO-11" value="class PhoneBookj:&lt;blockquote style=&quot;margin: 0 0 0 40px; border: none; padding: 0px;&quot;&gt;&lt;div&gt;__init__()&lt;/div&gt;&lt;div&gt;read_file()&lt;/div&gt;&lt;div&gt;save_file()&lt;/div&gt;&lt;div&gt;_next_id()&lt;/div&gt;&lt;div&gt;create_contact()&lt;/div&gt;&lt;div&gt;find_contact()&lt;/div&gt;&lt;div&gt;edit_contact()&lt;/div&gt;&lt;div&gt;delete_contact()&lt;/div&gt;&lt;/blockquote&gt;" style="text;html=1;align=left;verticalAlign=middle;whiteSpace=wrap;rounded=0;" vertex="1" parent="UG17n_jlXaB1rcsVZEa7-2">
          <mxGeometry y="50" width="170" height="140" as="geometry" />
        </mxCell>
        <mxCell id="oml5ZcgVibJiAviR7uDO-12" value="model.py" style="text;html=1;align=center;verticalAlign=middle;whiteSpace=wrap;rounded=0;" vertex="1" parent="UG17n_jlXaB1rcsVZEa7-2">
          <mxGeometry width="90" height="30" as="geometry" />
        </mxCell>
        <mxCell id="oml5ZcgVibJiAviR7uDO-21" value="" style="group" vertex="1" connectable="0" parent="1">
          <mxGeometry x="680" y="960" width="160" height="80" as="geometry" />
        </mxCell>
        <mxCell id="oml5ZcgVibJiAviR7uDO-18" value="" style="rounded=0;whiteSpace=wrap;html=1;" vertex="1" parent="oml5ZcgVibJiAviR7uDO-21">
          <mxGeometry width="160" height="80" as="geometry" />
        </mxCell>
        <mxCell id="oml5ZcgVibJiAviR7uDO-20" value="messages.py" style="text;html=1;align=center;verticalAlign=middle;whiteSpace=wrap;rounded=0;" vertex="1" parent="oml5ZcgVibJiAviR7uDO-21">
          <mxGeometry width="90" height="20" as="geometry" />
        </mxCell>
        <mxCell id="oml5ZcgVibJiAviR7uDO-22" value="" style="group" vertex="1" connectable="0" parent="1">
          <mxGeometry x="400" y="960" width="160" height="80" as="geometry" />
        </mxCell>
        <mxCell id="oml5ZcgVibJiAviR7uDO-23" value="" style="rounded=0;whiteSpace=wrap;html=1;" vertex="1" parent="oml5ZcgVibJiAviR7uDO-22">
          <mxGeometry width="160" height="80" as="geometry" />
        </mxCell>
        <mxCell id="oml5ZcgVibJiAviR7uDO-24" value="contacts.txt" style="text;html=1;align=center;verticalAlign=middle;whiteSpace=wrap;rounded=0;" vertex="1" parent="oml5ZcgVibJiAviR7uDO-22">
          <mxGeometry width="90" height="20" as="geometry" />
        </mxCell>
        <mxCell id="UG17n_jlXaB1rcsVZEa7-1" value="" style="group" vertex="1" connectable="0" parent="1">
          <mxGeometry x="520" y="680" width="200" height="200" as="geometry" />
        </mxCell>
        <mxCell id="oml5ZcgVibJiAviR7uDO-14" value="" style="rounded=0;whiteSpace=wrap;html=1;container=0;" vertex="1" parent="UG17n_jlXaB1rcsVZEa7-1">
          <mxGeometry width="200" height="200" as="geometry" />
        </mxCell>
        <mxCell id="oml5ZcgVibJiAviR7uDO-15" value="show_main_menu()&lt;div&gt;message()&lt;/div&gt;&lt;div&gt;main_menu_user_choice()&lt;/div&gt;&lt;div&gt;show_contacts()&lt;/div&gt;&lt;div&gt;input_data()&lt;/div&gt;&lt;div&gt;&lt;br&gt;&lt;/div&gt;" style="text;html=1;align=left;verticalAlign=middle;whiteSpace=wrap;rounded=0;container=0;" vertex="1" parent="UG17n_jlXaB1rcsVZEa7-1">
          <mxGeometry y="50" width="170" height="110" as="geometry" />
        </mxCell>
        <mxCell id="oml5ZcgVibJiAviR7uDO-16" value="view.py" style="text;html=1;align=center;verticalAlign=middle;whiteSpace=wrap;rounded=0;container=0;" vertex="1" parent="UG17n_jlXaB1rcsVZEa7-1">
          <mxGeometry width="90" height="30" as="geometry" />
        </mxCell>
        <mxCell id="UG17n_jlXaB1rcsVZEa7-3" value="" style="group" vertex="1" connectable="0" parent="1">
          <mxGeometry x="240" y="320" width="200" height="280" as="geometry" />
        </mxCell>
        <mxCell id="oml5ZcgVibJiAviR7uDO-2" value="" style="rounded=0;whiteSpace=wrap;html=1;container=0;" vertex="1" parent="UG17n_jlXaB1rcsVZEa7-3">
          <mxGeometry width="200" height="280" as="geometry" />
        </mxCell>
        <mxCell id="oml5ZcgVibJiAviR7uDO-1" value="class Controller:&lt;blockquote style=&quot;margin: 0 0 0 40px; border: none; padding: 0px;&quot;&gt;&lt;div&gt;__init__()&lt;/div&gt;&lt;div&gt;&lt;span style=&quot;background-color: transparent; color: light-dark(rgb(0, 0, 0), rgb(255, 255, 255));&quot;&gt;open_file()&lt;/span&gt;&lt;/div&gt;&lt;div&gt;save_file()&lt;/div&gt;&lt;div&gt;show_all_contacts()&lt;/div&gt;&lt;div&gt;create_contact()&lt;/div&gt;&lt;div&gt;find_contact()&lt;/div&gt;&lt;div&gt;edit_contact()&lt;/div&gt;&lt;div&gt;delete_contact()&lt;/div&gt;&lt;div&gt;end_work()&lt;/div&gt;&lt;div&gt;&lt;br&gt;&lt;/div&gt;&lt;div&gt;&lt;br&gt;&lt;/div&gt;&lt;/blockquote&gt;&lt;div&gt;start_app()&lt;/div&gt;" style="text;html=1;align=left;verticalAlign=middle;whiteSpace=wrap;rounded=0;container=0;" vertex="1" parent="UG17n_jlXaB1rcsVZEa7-3">
          <mxGeometry y="50" width="170" height="210" as="geometry" />
        </mxCell>
        <mxCell id="oml5ZcgVibJiAviR7uDO-3" value="controller.py" style="text;html=1;align=center;verticalAlign=middle;whiteSpace=wrap;rounded=0;container=0;" vertex="1" parent="UG17n_jlXaB1rcsVZEa7-3">
          <mxGeometry width="90" height="30" as="geometry" />
        </mxCell>
        <mxCell id="UG17n_jlXaB1rcsVZEa7-4" value="" style="endArrow=classic;html=1;rounded=0;exitX=0.5;exitY=1;exitDx=0;exitDy=0;" edge="1" parent="1" source="oml5ZcgVibJiAviR7uDO-4" target="oml5ZcgVibJiAviR7uDO-2">
          <mxGeometry width="50" height="50" relative="1" as="geometry">
            <mxPoint x="410" y="410" as="sourcePoint" />
            <mxPoint x="460" y="360" as="targetPoint" />
          </mxGeometry>
        </mxCell>
        <mxCell id="UG17n_jlXaB1rcsVZEa7-5" value="" style="endArrow=classic;html=1;rounded=0;entryX=0.5;entryY=0;entryDx=0;entryDy=0;exitX=0.25;exitY=1;exitDx=0;exitDy=0;startArrow=block;startFill=1;" edge="1" parent="1" source="oml5ZcgVibJiAviR7uDO-2" target="oml5ZcgVibJiAviR7uDO-10">
          <mxGeometry width="50" height="50" relative="1" as="geometry">
            <mxPoint x="410" y="530" as="sourcePoint" />
            <mxPoint x="460" y="480" as="targetPoint" />
          </mxGeometry>
        </mxCell>
        <mxCell id="UG17n_jlXaB1rcsVZEa7-6" value="" style="endArrow=classic;html=1;rounded=0;entryX=0.75;entryY=1;entryDx=0;entryDy=0;exitX=0.5;exitY=0;exitDx=0;exitDy=0;startArrow=block;startFill=1;" edge="1" parent="1" source="oml5ZcgVibJiAviR7uDO-14" target="oml5ZcgVibJiAviR7uDO-2">
          <mxGeometry width="50" height="50" relative="1" as="geometry">
            <mxPoint x="790" y="545" as="sourcePoint" />
            <mxPoint x="560" y="625" as="targetPoint" />
          </mxGeometry>
        </mxCell>
        <mxCell id="UG17n_jlXaB1rcsVZEa7-7" value="" style="endArrow=classic;html=1;rounded=0;entryX=0.5;entryY=0;entryDx=0;entryDy=0;exitX=0.25;exitY=1;exitDx=0;exitDy=0;startArrow=block;startFill=1;" edge="1" parent="1" source="oml5ZcgVibJiAviR7uDO-14" target="oml5ZcgVibJiAviR7uDO-23">
          <mxGeometry width="50" height="50" relative="1" as="geometry">
            <mxPoint x="500" y="940" as="sourcePoint" />
            <mxPoint x="270" y="860" as="targetPoint" />
          </mxGeometry>
        </mxCell>
        <mxCell id="UG17n_jlXaB1rcsVZEa7-8" value="" style="endArrow=classic;html=1;rounded=0;entryX=0.75;entryY=1;entryDx=0;entryDy=0;exitX=0.5;exitY=0;exitDx=0;exitDy=0;startArrow=block;startFill=1;" edge="1" parent="1" source="oml5ZcgVibJiAviR7uDO-18" target="oml5ZcgVibJiAviR7uDO-14">
          <mxGeometry width="50" height="50" relative="1" as="geometry">
            <mxPoint x="580" y="890" as="sourcePoint" />
            <mxPoint x="490" y="970" as="targetPoint" />
          </mxGeometry>
        </mxCell>
      </root>
    </mxGraphModel>
  </diagram>
  <diagram id="l9NedG9sKHErBbAtNAZM" name="MY">
    <mxGraphModel dx="2284" dy="754" grid="1" gridSize="10" guides="1" tooltips="1" connect="1" arrows="1" fold="1" page="1" pageScale="1" pageWidth="850" pageHeight="1100" math="0" shadow="0">
      <root>
        <mxCell id="0" />
        <mxCell id="1" parent="0" />
        <mxCell id="7z_faqwvwaHdXVhqbT2I-1" value="Классы:&lt;div&gt;Справочник&lt;/div&gt;&lt;div&gt;Контакт&lt;/div&gt;&lt;div&gt;Чтение файла&lt;/div&gt;&lt;div&gt;Запись файла&lt;/div&gt;" style="text;html=1;align=left;verticalAlign=middle;whiteSpace=wrap;rounded=0;" vertex="1" parent="1">
          <mxGeometry x="640" y="40" width="190" height="120" as="geometry" />
        </mxCell>
        <mxCell id="7z_faqwvwaHdXVhqbT2I-2" value="Исключения:&lt;div&gt;для обработки всевозможных ошибок&lt;/div&gt;" style="text;html=1;align=left;verticalAlign=middle;whiteSpace=wrap;rounded=0;" vertex="1" parent="1">
          <mxGeometry x="640" y="160" width="190" height="120" as="geometry" />
        </mxCell>
        <mxCell id="7z_faqwvwaHdXVhqbT2I-3" value="" style="group" vertex="1" connectable="0" parent="1">
          <mxGeometry x="240" y="80" width="200" height="120" as="geometry" />
        </mxCell>
        <mxCell id="7z_faqwvwaHdXVhqbT2I-4" value="" style="rounded=0;whiteSpace=wrap;html=1;" vertex="1" parent="7z_faqwvwaHdXVhqbT2I-3">
          <mxGeometry width="200" height="120" as="geometry" />
        </mxCell>
        <mxCell id="7z_faqwvwaHdXVhqbT2I-5" value="main.py" style="text;html=1;align=center;verticalAlign=middle;whiteSpace=wrap;rounded=0;" vertex="1" parent="7z_faqwvwaHdXVhqbT2I-3">
          <mxGeometry width="60" height="30" as="geometry" />
        </mxCell>
        <mxCell id="7z_faqwvwaHdXVhqbT2I-6" value="controller.start_app()" style="text;html=1;align=center;verticalAlign=middle;whiteSpace=wrap;rounded=0;" vertex="1" parent="7z_faqwvwaHdXVhqbT2I-3">
          <mxGeometry y="40" width="140" height="30" as="geometry" />
        </mxCell>
        <mxCell id="7z_faqwvwaHdXVhqbT2I-7" value="" style="group" vertex="1" connectable="0" parent="1">
          <mxGeometry x="-40" y="680" width="200" height="285" as="geometry" />
        </mxCell>
        <mxCell id="7z_faqwvwaHdXVhqbT2I-8" value="" style="group" vertex="1" connectable="0" parent="7z_faqwvwaHdXVhqbT2I-7">
          <mxGeometry width="200" height="200" as="geometry" />
        </mxCell>
        <mxCell id="7z_faqwvwaHdXVhqbT2I-9" value="" style="rounded=0;whiteSpace=wrap;html=1;" vertex="1" parent="7z_faqwvwaHdXVhqbT2I-8">
          <mxGeometry width="200" height="200" as="geometry" />
        </mxCell>
        <mxCell id="7z_faqwvwaHdXVhqbT2I-10" value="class PhoneBookj:&lt;blockquote style=&quot;margin: 0 0 0 40px; border: none; padding: 0px;&quot;&gt;&lt;div&gt;__init__()&lt;/div&gt;&lt;div&gt;read_file()&lt;/div&gt;&lt;div&gt;save_file()&lt;/div&gt;&lt;div&gt;_next_id()&lt;/div&gt;&lt;div&gt;create_contact()&lt;/div&gt;&lt;div&gt;find_contact()&lt;/div&gt;&lt;div&gt;edit_contact()&lt;/div&gt;&lt;div&gt;delete_contact()&lt;/div&gt;&lt;/blockquote&gt;" style="text;html=1;align=left;verticalAlign=middle;whiteSpace=wrap;rounded=0;" vertex="1" parent="7z_faqwvwaHdXVhqbT2I-8">
          <mxGeometry y="50" width="170" height="140" as="geometry" />
        </mxCell>
        <mxCell id="7z_faqwvwaHdXVhqbT2I-11" value="model.py" style="text;html=1;align=center;verticalAlign=middle;whiteSpace=wrap;rounded=0;" vertex="1" parent="7z_faqwvwaHdXVhqbT2I-8">
          <mxGeometry width="90" height="30" as="geometry" />
        </mxCell>
        <mxCell id="7z_faqwvwaHdXVhqbT2I-12" value="" style="group" vertex="1" connectable="0" parent="1">
          <mxGeometry x="680" y="960" width="160" height="80" as="geometry" />
        </mxCell>
        <mxCell id="7z_faqwvwaHdXVhqbT2I-13" value="" style="rounded=0;whiteSpace=wrap;html=1;" vertex="1" parent="7z_faqwvwaHdXVhqbT2I-12">
          <mxGeometry width="160" height="80" as="geometry" />
        </mxCell>
        <mxCell id="7z_faqwvwaHdXVhqbT2I-14" value="messages.py" style="text;html=1;align=center;verticalAlign=middle;whiteSpace=wrap;rounded=0;" vertex="1" parent="7z_faqwvwaHdXVhqbT2I-12">
          <mxGeometry width="90" height="20" as="geometry" />
        </mxCell>
        <mxCell id="7z_faqwvwaHdXVhqbT2I-15" value="" style="group" vertex="1" connectable="0" parent="1">
          <mxGeometry x="400" y="960" width="160" height="80" as="geometry" />
        </mxCell>
        <mxCell id="7z_faqwvwaHdXVhqbT2I-16" value="" style="rounded=0;whiteSpace=wrap;html=1;" vertex="1" parent="7z_faqwvwaHdXVhqbT2I-15">
          <mxGeometry width="160" height="80" as="geometry" />
        </mxCell>
        <mxCell id="7z_faqwvwaHdXVhqbT2I-17" value="contacts.txt" style="text;html=1;align=center;verticalAlign=middle;whiteSpace=wrap;rounded=0;" vertex="1" parent="7z_faqwvwaHdXVhqbT2I-15">
          <mxGeometry width="90" height="20" as="geometry" />
        </mxCell>
        <mxCell id="7z_faqwvwaHdXVhqbT2I-18" value="" style="group" vertex="1" connectable="0" parent="1">
          <mxGeometry x="520" y="680" width="200" height="200" as="geometry" />
        </mxCell>
        <mxCell id="7z_faqwvwaHdXVhqbT2I-19" value="" style="rounded=0;whiteSpace=wrap;html=1;container=0;" vertex="1" parent="7z_faqwvwaHdXVhqbT2I-18">
          <mxGeometry width="200" height="200" as="geometry" />
        </mxCell>
        <mxCell id="7z_faqwvwaHdXVhqbT2I-20" value="show_main_menu()&lt;div&gt;message()&lt;/div&gt;&lt;div&gt;main_menu_user_choice()&lt;/div&gt;&lt;div&gt;show_contacts()&lt;/div&gt;&lt;div&gt;input_data()&lt;/div&gt;&lt;div&gt;&lt;br&gt;&lt;/div&gt;" style="text;html=1;align=left;verticalAlign=middle;whiteSpace=wrap;rounded=0;container=0;" vertex="1" parent="7z_faqwvwaHdXVhqbT2I-18">
          <mxGeometry y="50" width="170" height="110" as="geometry" />
        </mxCell>
        <mxCell id="7z_faqwvwaHdXVhqbT2I-21" value="view.py" style="text;html=1;align=center;verticalAlign=middle;whiteSpace=wrap;rounded=0;container=0;" vertex="1" parent="7z_faqwvwaHdXVhqbT2I-18">
          <mxGeometry width="90" height="30" as="geometry" />
        </mxCell>
        <mxCell id="7z_faqwvwaHdXVhqbT2I-22" value="" style="group" vertex="1" connectable="0" parent="1">
          <mxGeometry x="240" y="320" width="200" height="280" as="geometry" />
        </mxCell>
        <mxCell id="7z_faqwvwaHdXVhqbT2I-23" value="" style="rounded=0;whiteSpace=wrap;html=1;container=0;" vertex="1" parent="7z_faqwvwaHdXVhqbT2I-22">
          <mxGeometry width="200" height="280" as="geometry" />
        </mxCell>
        <mxCell id="7z_faqwvwaHdXVhqbT2I-24" value="class Controller:&lt;blockquote style=&quot;margin: 0 0 0 40px; border: none; padding: 0px;&quot;&gt;&lt;div&gt;__init__()&lt;/div&gt;&lt;div&gt;&lt;span style=&quot;background-color: transparent; color: light-dark(rgb(0, 0, 0), rgb(255, 255, 255));&quot;&gt;open_file()&lt;/span&gt;&lt;/div&gt;&lt;div&gt;save_file()&lt;/div&gt;&lt;div&gt;show_all_contacts()&lt;/div&gt;&lt;div&gt;create_contact()&lt;/div&gt;&lt;div&gt;find_contact()&lt;/div&gt;&lt;div&gt;edit_contact()&lt;/div&gt;&lt;div&gt;delete_contact()&lt;/div&gt;&lt;div&gt;end_work()&lt;/div&gt;&lt;div&gt;&lt;br&gt;&lt;/div&gt;&lt;div&gt;&lt;br&gt;&lt;/div&gt;&lt;/blockquote&gt;&lt;div&gt;start_app()&lt;/div&gt;" style="text;html=1;align=left;verticalAlign=middle;whiteSpace=wrap;rounded=0;container=0;" vertex="1" parent="7z_faqwvwaHdXVhqbT2I-22">
          <mxGeometry y="50" width="170" height="210" as="geometry" />
        </mxCell>
        <mxCell id="7z_faqwvwaHdXVhqbT2I-25" value="controller.py" style="text;html=1;align=center;verticalAlign=middle;whiteSpace=wrap;rounded=0;container=0;" vertex="1" parent="7z_faqwvwaHdXVhqbT2I-22">
          <mxGeometry width="90" height="30" as="geometry" />
        </mxCell>
        <mxCell id="7z_faqwvwaHdXVhqbT2I-26" value="" style="endArrow=classic;html=1;rounded=0;exitX=0.5;exitY=1;exitDx=0;exitDy=0;" edge="1" parent="1" source="7z_faqwvwaHdXVhqbT2I-4" target="7z_faqwvwaHdXVhqbT2I-23">
          <mxGeometry width="50" height="50" relative="1" as="geometry">
            <mxPoint x="410" y="410" as="sourcePoint" />
            <mxPoint x="460" y="360" as="targetPoint" />
          </mxGeometry>
        </mxCell>
        <mxCell id="7z_faqwvwaHdXVhqbT2I-27" value="" style="endArrow=classic;html=1;rounded=0;entryX=0.5;entryY=0;entryDx=0;entryDy=0;exitX=0.25;exitY=1;exitDx=0;exitDy=0;startArrow=block;startFill=1;" edge="1" parent="1" source="7z_faqwvwaHdXVhqbT2I-23" target="7z_faqwvwaHdXVhqbT2I-9">
          <mxGeometry width="50" height="50" relative="1" as="geometry">
            <mxPoint x="410" y="530" as="sourcePoint" />
            <mxPoint x="460" y="480" as="targetPoint" />
          </mxGeometry>
        </mxCell>
        <mxCell id="7z_faqwvwaHdXVhqbT2I-28" value="" style="endArrow=classic;html=1;rounded=0;entryX=0.75;entryY=1;entryDx=0;entryDy=0;exitX=0.5;exitY=0;exitDx=0;exitDy=0;startArrow=block;startFill=1;" edge="1" parent="1" source="7z_faqwvwaHdXVhqbT2I-19" target="7z_faqwvwaHdXVhqbT2I-23">
          <mxGeometry width="50" height="50" relative="1" as="geometry">
            <mxPoint x="790" y="545" as="sourcePoint" />
            <mxPoint x="560" y="625" as="targetPoint" />
          </mxGeometry>
        </mxCell>
        <mxCell id="7z_faqwvwaHdXVhqbT2I-29" value="" style="endArrow=classic;html=1;rounded=0;entryX=0.5;entryY=0;entryDx=0;entryDy=0;exitX=0.25;exitY=1;exitDx=0;exitDy=0;startArrow=block;startFill=1;" edge="1" parent="1" source="7z_faqwvwaHdXVhqbT2I-19" target="7z_faqwvwaHdXVhqbT2I-16">
          <mxGeometry width="50" height="50" relative="1" as="geometry">
            <mxPoint x="500" y="940" as="sourcePoint" />
            <mxPoint x="270" y="860" as="targetPoint" />
          </mxGeometry>
        </mxCell>
        <mxCell id="7z_faqwvwaHdXVhqbT2I-30" value="" style="endArrow=classic;html=1;rounded=0;entryX=0.75;entryY=1;entryDx=0;entryDy=0;exitX=0.5;exitY=0;exitDx=0;exitDy=0;startArrow=block;startFill=1;" edge="1" parent="1" source="7z_faqwvwaHdXVhqbT2I-13" target="7z_faqwvwaHdXVhqbT2I-19">
          <mxGeometry width="50" height="50" relative="1" as="geometry">
            <mxPoint x="580" y="890" as="sourcePoint" />
            <mxPoint x="490" y="970" as="targetPoint" />
          </mxGeometry>
        </mxCell>
        <mxCell id="7z_faqwvwaHdXVhqbT2I-31" value="Классы:&lt;div&gt;Справочник&lt;/div&gt;&lt;div&gt;Контакт&lt;/div&gt;&lt;div&gt;Чтение файла&lt;/div&gt;&lt;div&gt;Запись файла&lt;/div&gt;" style="text;html=1;align=left;verticalAlign=middle;whiteSpace=wrap;rounded=0;" vertex="1" parent="1">
          <mxGeometry x="-270" y="680" width="190" height="90" as="geometry" />
        </mxCell>
        <mxCell id="7z_faqwvwaHdXVhqbT2I-32" value="Классы:&lt;div&gt;Меню&lt;/div&gt;" style="text;html=1;align=left;verticalAlign=middle;whiteSpace=wrap;rounded=0;" vertex="1" parent="1">
          <mxGeometry x="800" y="680" width="190" height="50" as="geometry" />
        </mxCell>
      </root>
    </mxGraphModel>
  </diagram>
</mxfile>
